<svg xmlns="http://www.w3.org/2000/svg" xmlns:xlink="http://www.w3.org/1999/xlink" width="500" zoomAndPan="magnify" viewBox="0 0 375 374.999991" height="500" preserveAspectRatio="xMidYMid meet" version="1.0"><defs><clipPath id="3cd47aed49"><path d="M 22.03125 6 L 348 6 L 348 374.769531 L 22.03125 374.769531 Z M 22.03125 6 " clip-rule="nonzero"/></clipPath></defs><path fill="#faeae8" d="M 340.5 195.328125 C 345.339844 172.160156 340.425781 147.707031 330.355469 126.289062 C 320.28125 104.871094 305.308594 86.136719 289.386719 68.617188 C 285.933594 64.816406 282.359375 61.007812 277.957031 58.359375 C 272.585938 55.136719 266.316406 53.832031 260.132812 52.835938 C 228.867188 47.769531 196.5625 49.210938 165.871094 57.046875 C 156.824219 59.355469 147.636719 62.363281 140.589844 68.492188 C 133.851562 74.355469 129.667969 82.558594 125.652344 90.535156 C 119.496094 102.765625 113.316406 115.042969 109.035156 128.046875 C 98.402344 160.347656 100.003906 195.25 95.050781 228.890625 C 87.507812 280.09375 64.1875 328.863281 29.078125 366.878906 L 325.050781 366.382812 C 322.378906 350.847656 319.703125 335.316406 317.027344 319.785156 C 314.210938 303.417969 311.386719 286.710938 313.886719 270.292969 C 317.886719 244.007812 335.058594 221.351562 340.5 195.328125 Z M 340.5 195.328125 " fill-opacity="1" fill-rule="nonzero"/><path fill="#dbcab9" d="M 134.851562 102.007812 C 111.664062 115.859375 91.554688 134.847656 76.410156 157.214844 C 74.636719 159.832031 72.875 162.675781 72.824219 165.839844 C 72.789062 167.902344 73.5 169.886719 74.195312 171.828125 C 76.128906 177.183594 78.0625 182.539062 79.992188 187.894531 C 82.636719 195.222656 85.285156 202.5625 88.484375 209.664062 C 90.925781 215.078125 93.683594 220.355469 96.75 225.445312 C 97.160156 226.128906 97.613281 226.84375 98.335938 227.164062 C 99.457031 227.664062 100.75 227.046875 101.777344 226.378906 C 109.566406 221.261719 113.980469 212.320312 116.621094 203.382812 C 121.585938 186.625 121.539062 168.871094 122.742188 151.4375 C 123.945312 134.003906 126.667969 115.996094 136.269531 101.398438 Z M 134.851562 102.007812 " fill-opacity="1" fill-rule="nonzero"/><path fill="#eccbc1" d="M 295.734375 29.203125 C 292.050781 20.425781 285.953125 10.820312 276.453125 10.226562 C 268.957031 9.757812 262.507812 15.226562 257.25 20.59375 C 249.4375 28.578125 242.226562 37.164062 235.6875 46.222656 C 235.386719 46.097656 235.019531 46.105469 234.886719 46.4375 C 234.785156 46.71875 234.824219 46.996094 234.945312 47.257812 C 234.511719 47.867188 234.066406 48.472656 233.636719 49.09375 L 235.195312 47.621094 C 235.421875 47.902344 235.71875 48.148438 236.011719 48.34375 C 245.5 54.632812 257.582031 55.953125 267.195312 62.050781 C 271.371094 64.699219 274.957031 68.175781 278.859375 71.214844 C 287.417969 77.871094 297.601562 82.433594 308.265625 84.378906 C 307.320312 65.445312 303.058594 46.683594 295.734375 29.203125 Z M 295.734375 29.203125 " fill-opacity="1" fill-rule="nonzero"/><path fill="#eccbc1" d="M 155.960938 55.730469 C 150.128906 58.074219 141.210938 63.34375 134.925781 63.332031 C 129.066406 63.320312 126.789062 58.425781 121.609375 55.679688 C 111.511719 50.316406 101.421875 44.953125 91.320312 39.589844 C 78.191406 32.613281 64.097656 25.4375 49.289062 26.738281 C 47.230469 26.917969 45.125 27.289062 43.386719 28.398438 C 39.398438 30.933594 38.578125 36.351562 38.449219 41.082031 C 37.386719 78.523438 54.140625 113.839844 63.179688 150.195312 C 63.921875 153.175781 64.65625 156.265625 66.539062 158.695312 C 69.925781 163.066406 76.167969 164.140625 81.660156 163.472656 C 94.824219 161.871094 105.824219 152.421875 113.496094 141.597656 C 121.160156 130.78125 126.28125 118.382812 133.167969 107.046875 C 136.863281 100.953125 141.066406 95.175781 145.59375 89.675781 C 159.15625 73.210938 175.707031 59.226562 194.207031 48.617188 L 187.738281 51.039062 C 176.964844 50.074219 165.980469 51.703125 155.960938 55.730469 Z M 155.960938 55.730469 " fill-opacity="1" fill-rule="nonzero"/><path fill="#7d4e22" d="M 318.15625 147.082031 C 312.488281 132.101562 302.980469 115.511719 288.796875 107.195312 C 278.761719 101.3125 267.527344 97.523438 255.988281 95.867188 C 257.003906 95.496094 257.953125 95.007812 258.78125 94.308594 C 260.714844 92.671875 261.597656 89.496094 259.953125 87.566406 C 258.800781 86.222656 256.878906 85.902344 255.125 85.679688 C 247.640625 84.722656 239.722656 83.960938 232.824219 87.015625 C 230.675781 87.964844 228.40625 89.882812 228.882812 92.183594 C 229.234375 93.859375 230.871094 94.816406 232.53125 95.457031 C 216.46875 97.210938 201.007812 103.1875 188.578125 113.585938 C 183.472656 117.855469 178.921875 122.757812 174.628906 127.847656 C 163.65625 140.863281 152.695312 157.476562 152.777344 175.105469 C 152.792969 178.425781 153.128906 181.730469 153.753906 184.980469 C 156.1875 197.695312 163.011719 209.59375 172.1875 218.613281 C 186.445312 232.625 204.980469 239.613281 224.046875 244.222656 C 243.691406 248.972656 265.605469 248.855469 283.898438 239.378906 C 292.277344 235.039062 308.132812 219.972656 315.101562 206.625 C 324.707031 188.214844 325.5 166.511719 318.15625 147.082031 Z M 318.15625 147.082031 " fill-opacity="1" fill-rule="nonzero"/><g clip-path="url(#3cd47aed49)"><path fill="#7d4e22" d="M 339.796875 134.164062 C 336.394531 125.171875 331.878906 115.941406 325.988281 105.941406 C 322.496094 100.003906 318.9375 94.230469 314.554688 89.027344 C 314.535156 88.816406 314.511719 88.609375 314.464844 88.394531 C 312.6875 80.492188 311.089844 72.285156 309.539062 64.347656 C 307.984375 56.355469 306.371094 48.089844 304.570312 40.074219 C 303.085938 33.492188 301.414062 26.035156 297.507812 19.527344 C 292.832031 11.71875 285.476562 6.710938 277.839844 6.140625 C 265.09375 5.175781 255.207031 16.109375 249.917969 21.988281 L 230.40625 43.652344 C 197.414062 36.449219 158.554688 51.078125 134.125 60.273438 C 133.492188 60.515625 132.308594 60.957031 131.925781 60.90625 C 131.507812 60.847656 130.445312 60.019531 129.808594 59.523438 C 109.566406 43.738281 85.851562 31.636719 61.195312 24.519531 C 55.332031 22.828125 48.539062 21.542969 42.664062 24.890625 C 33.164062 30.296875 33.488281 43.273438 33.59375 47.539062 C 34.886719 100.042969 56.914062 149.089844 78.21875 196.519531 L 78.296875 196.6875 C 82.503906 206.058594 86.851562 215.742188 88.277344 225.875 C 90.515625 241.808594 85.40625 257.992188 80.109375 271.726562 C 66.855469 306.085938 47.871094 337.578125 23.675781 365.34375 C 22.019531 367.242188 22.21875 370.132812 24.121094 371.792969 C 24.984375 372.546875 26.058594 372.917969 27.121094 372.917969 C 28.394531 372.917969 29.664062 372.382812 30.566406 371.347656 C 55.464844 342.785156 75.003906 310.375 88.632812 275.019531 C 94.355469 260.191406 99.851562 242.613281 97.320312 224.605469 C 95.714844 213.191406 90.886719 202.433594 86.625 192.945312 L 86.546875 192.769531 C 65.625 146.171875 43.984375 97.988281 42.730469 47.316406 C 42.535156 39.5 44.039062 34.632812 47.1875 32.835938 C 50.101562 31.175781 54.429688 32.082031 58.664062 33.304688 C 82.207031 40.097656 104.863281 51.65625 124.179688 66.730469 C 125.722656 67.933594 127.832031 69.574219 130.699219 69.964844 C 133.367188 70.320312 135.664062 69.457031 137.34375 68.832031 C 163.90625 58.828125 208.367188 42.089844 240.214844 56.421875 C 242.511719 57.457031 245.21875 56.425781 246.261719 54.128906 C 247.296875 51.824219 246.269531 49.117188 243.964844 48.082031 C 242.703125 47.519531 241.425781 46.996094 240.136719 46.515625 L 256.71875 28.109375 C 262.59375 21.589844 269.523438 14.683594 277.164062 15.265625 C 282.679688 15.679688 287.246094 20.171875 289.679688 24.238281 C 292.832031 29.492188 294.269531 35.902344 295.667969 42.097656 C 297.445312 49.992188 299.039062 58.183594 300.585938 66.117188 C 301.492188 70.777344 302.429688 75.527344 303.398438 80.265625 C 302.246094 80.390625 301.132812 80.941406 300.339844 81.914062 C 298.738281 83.863281 299.023438 86.746094 300.976562 88.34375 C 308.199219 94.257812 313.210938 102.242188 318.121094 110.59375 C 323.746094 120.140625 328.039062 128.914062 331.257812 137.414062 C 336.589844 151.476562 339.101562 165.558594 338.722656 179.265625 C 338.246094 196.679688 331.324219 211.324219 323.992188 226.824219 C 317.921875 239.667969 311.636719 252.949219 309.3125 267.964844 C 307.328125 280.804688 309.488281 293.988281 311.394531 305.625 L 322.078125 370.796875 C 322.441406 373.035156 324.382812 374.628906 326.582031 374.628906 C 326.828125 374.628906 327.074219 374.609375 327.328125 374.570312 C 329.820312 374.160156 331.507812 371.8125 331.097656 369.320312 L 320.414062 304.148438 C 318.527344 292.65625 316.582031 280.765625 318.34375 269.363281 C 320.464844 255.664062 326.191406 243.558594 332.25 230.738281 C 339.660156 215.066406 347.324219 198.855469 347.851562 179.519531 C 348.253906 164.601562 345.546875 149.347656 339.796875 134.164062 Z M 339.796875 134.164062 " fill-opacity="1" fill-rule="nonzero"/></g><path fill="#7d4e22" d="M 153.765625 99.550781 C 163.410156 97.851562 172.746094 94.414062 181.199219 89.46875 C 183.425781 88.167969 185.859375 86.28125 185.761719 83.703125 C 185.671875 81.320312 183.398438 79.609375 181.160156 78.808594 C 176.90625 77.296875 172.136719 77.8125 167.886719 79.328125 C 163.632812 80.851562 159.792969 83.3125 155.992188 85.753906 C 153.675781 87.242188 151.28125 88.8125 149.84375 91.152344 C 148.40625 93.503906 148.238281 96.875 150.214844 98.789062 L 150.730469 97.980469 C 150.390625 99.316406 152.421875 99.785156 153.765625 99.550781 Z M 153.765625 99.550781 " fill-opacity="1" fill-rule="nonzero"/><path fill="#7d4e22" d="M 250.824219 74.195312 C 258.78125 77.394531 267.402344 78.933594 275.972656 78.683594 C 277.878906 78.632812 280.117188 78.273438 280.988281 76.574219 C 281.332031 75.898438 281.390625 75.113281 281.351562 74.351562 C 281.066406 68.664062 275.777344 64.179688 270.179688 63.125 C 264.585938 62.070312 258.839844 63.714844 253.554688 65.855469 C 251.84375 66.546875 250.066406 67.367188 249.035156 68.890625 C 248 70.414062 248.082031 72.847656 249.683594 73.769531 Z M 250.824219 74.195312 " fill-opacity="1" fill-rule="nonzero"/><path fill="#ffffff" d="M 172.796875 85.421875 C 172.871094 85.890625 172.855469 86.359375 172.746094 86.824219 C 172.636719 87.289062 172.441406 87.714844 172.164062 88.101562 C 171.882812 88.488281 171.542969 88.808594 171.136719 89.058594 C 170.730469 89.308594 170.292969 89.472656 169.820312 89.550781 C 169.347656 89.625 168.882812 89.609375 168.417969 89.5 C 167.953125 89.390625 167.527344 89.195312 167.140625 88.917969 C 166.753906 88.636719 166.433594 88.296875 166.183594 87.890625 C 165.933594 87.484375 165.769531 87.046875 165.691406 86.574219 C 165.617188 86.101562 165.632812 85.636719 165.742188 85.171875 C 165.851562 84.707031 166.046875 84.28125 166.324219 83.894531 C 166.605469 83.507812 166.945312 83.1875 167.351562 82.9375 C 167.757812 82.683594 168.195312 82.523438 168.667969 82.445312 C 169.140625 82.367188 169.605469 82.386719 170.070312 82.496094 C 170.535156 82.605469 170.960938 82.800781 171.347656 83.078125 C 171.734375 83.355469 172.054688 83.699219 172.304688 84.105469 C 172.554688 84.511719 172.71875 84.949219 172.796875 85.421875 Z M 172.796875 85.421875 " fill-opacity="1" fill-rule="nonzero"/><path fill="#ffffff" d="M 263.53125 68.972656 C 263.609375 69.445312 263.59375 69.914062 263.484375 70.378906 C 263.375 70.839844 263.179688 71.265625 262.898438 71.65625 C 262.621094 72.042969 262.277344 72.359375 261.871094 72.613281 C 261.46875 72.863281 261.027344 73.027344 260.558594 73.101562 C 260.085938 73.179688 259.617188 73.164062 259.15625 73.050781 C 258.691406 72.941406 258.265625 72.75 257.878906 72.46875 C 257.488281 72.191406 257.171875 71.847656 256.921875 71.441406 C 256.667969 71.035156 256.507812 70.597656 256.429688 70.125 C 256.351562 69.65625 256.371094 69.1875 256.480469 68.722656 C 256.589844 68.257812 256.785156 67.832031 257.0625 67.445312 C 257.339844 67.058594 257.683594 66.738281 258.089844 66.488281 C 258.496094 66.238281 258.933594 66.074219 259.40625 65.996094 C 259.875 65.921875 260.34375 65.9375 260.808594 66.046875 C 261.273438 66.15625 261.699219 66.351562 262.085938 66.628906 C 262.472656 66.910156 262.792969 67.253906 263.042969 67.660156 C 263.292969 68.0625 263.457031 68.503906 263.53125 68.972656 Z M 263.53125 68.972656 " fill-opacity="1" fill-rule="nonzero"/></svg>